# xmcd
#
# Track frame offsets:
#	150
#	35617
#	52812
#	76347
#	130385
#	166795
#	194390
#	250442
#
# Disc length: 3592 seconds
#
# Revision: 1
# Processed by: cddbd v1.5PL3 Copyright (c) Steve Scherf et al.
# Submitted via: CDex 1.50Beta5
#
DISCID=640e0608
DTITLE=伍芳 - 弦舞〜Dance of Chinese Harp〜
DYEAR=1999
DGENRE=New Age
TTITLE0=彝族舞曲
TTITLE1=Powder Sand
TTITLE2=香江夜色II
TTITLE3=月児高
TTITLE4=春舞
TTITLE5=東海漁歌
TTITLE6=孔雀東南飛
TTITLE7=路
EXTD=
EXTT0=
EXTT1=
EXTT2=
EXTT3=
EXTT4=
EXTT5=
EXTT6=
EXTT7=
PLAYORDER=
